# xmcd CD database file
#
# Track frame offsets:
#	182
#	72492
#	128887
#	183305
#
# Disc length: 3057 seconds
#
# Revision: 0
# Processed by: cddbd v1.5PL3 Copyright (c) Steve Scherf et al.
# Submitted via: CDex 1.51
#
DISCID=360bef04
DTITLE=Frei Zinger - Seasons
DYEAR=1997
DGENRE=New Age
TTITLE0=Spring
TTITLE1=Summer
TTITLE2=Autumn
TTITLE3=Winter
EXTD=YEAR: 1997
EXTT0=
EXTT1=
EXTT2=
EXTT3=
PLAYORDER=
